<?xml version="1.0" standalone="no"?><!DOCTYPE svg PUBLIC "-//W3C//DTD SVG 1.1//EN" "http://www.w3.org/Graphics/SVG/1.1/DTD/svg11.dtd"><svg t="1781151194360" class="icon" viewBox="0 0 1024 1024" version="1.1" xmlns="http://www.w3.org/2000/svg" p-id="5117" xmlns:xlink="http://www.w3.org/1999/xlink" width="200" height="200"><path d="M870.570667 508.017778a42.666667 42.666667 0 0 1 5.262222 60.117333l-120.263111 143.303111 77.824 134.784a42.666667 42.666667 0 1 1-73.898667 42.666667l-62.293333-107.875556-95.630222 113.962667a42.666667 42.666667 0 1 1-65.365334-54.840889l115.584-137.770667-77.184-133.717333a42.666667 42.666667 0 1 1 73.898667-42.666667l61.667555 106.808889 100.280889-119.509333a42.666667 42.666667 0 0 1 60.117334-5.262222zM611.555556 113.777778a42.666667 42.666667 0 0 1 2.503111 85.262222L611.555556 199.111111h-19.256889a128 128 0 0 0-126.577778 108.984889l-0.512 3.768889L463.374222 327.111111H554.666667a28.444444 28.444444 0 0 1 28.444444 28.444445v28.444444a28.444444 28.444444 0 0 1-28.444444 28.444444h-101.532445l-37.176889 309.859556a213.333333 213.333333 0 0 1-207.061333 187.875556l-4.750222 0.042666H184.888889a42.666667 42.666667 0 0 1-2.503111-85.262222L184.888889 824.888889h19.256889a128 128 0 0 0 126.577778-108.984889l0.512-3.768889L367.175111 412.444444H270.222222a28.444444 28.444444 0 0 1-28.444444-28.444444v-28.444444a28.444444 28.444444 0 0 1 28.444444-28.444445h107.192889l3.072-25.415111a213.333333 213.333333 0 0 1 207.061333-187.875556L592.298667 113.777778H611.555556z" fill="#d4237a" p-id="5118"></path></svg>